<svg width="18" height="18" viewBox="0 0 18 18" fill="none" xmlns="http://www.w3.org/2000/svg">
<path d="M11.1427 9.2988C12.6211 8.5636 13.6316 7.0952 13.6316 5.4C13.6316 2.97 11.5579 1 9 1C6.44211 1 4.36842 2.97 4.36842 5.4C4.36842 7.0952 5.37895 8.5636 6.85726 9.2988C3.48 10.236 1 13.3236 1 17H17C17 13.3236 14.52 10.236 11.1427 9.2988ZM5.21053 5.4C5.21053 3.4148 6.91032 1.8 9 1.8C11.0897 1.8 12.7895 3.4148 12.7895 5.4C12.7895 7.3852 11.0897 9 9 9C6.91032 9 5.21053 7.3852 5.21053 5.4ZM9 9.8C12.6779 9.8 15.7171 12.6052 16.1141 16.2H1.88589C2.28295 12.6052 5.32211 9.8 9 9.8Z" fill="#002B4D"/>
</svg>
