<svg width="86" height="158" viewBox="0 0 86 158" fill="none" xmlns="http://www.w3.org/2000/svg">
<g clip-path="url(#clip0_190_45652)">
<path d="M76.1913 157.08V157.246H71.939M71.9378 157.08V157.246H71.2756M9.8091 157.246V157.08M9.8091 157.246H9.2011V157.08M9.8091 157.246H14.1168M14.1168 157.246V157.08M14.1168 157.246H14.7248V157.08M10.1956 47.6394V47.6947M75.8036 47.6394V47.6947M76.19 157.246H76.798V157.08M83.7013 50.0095V57.8389L83.7567 58.1694L83.9229 58.3894L84.1986 58.5553L84.4743 58.6105L84.8053 58.5553L85.0256 58.3894L85.1918 58.1694L85.2472 57.8389M85.2484 57.8389V50.0095L85.193 49.7343L85.0269 49.4591L84.8066 49.2932L84.4755 49.2379L84.1998 49.2932L83.9242 49.4591L83.758 49.7343L83.7026 50.0095M3.84485 152.395L3.90024 153.111L4.12053 153.827L4.39621 154.544L4.78267 155.151L5.22451 155.702L5.77713 156.199L6.43926 156.585L7.1014 156.86L7.81892 157.026L8.53644 157.081M3.84485 152.395V47.6934H8.53896M3.84485 152.395H8.53896M8.53896 47.6934H77.4614M8.53896 47.6934V152.393M77.4614 47.6934H82.1555V152.393M77.4614 47.6934V152.395M77.4614 157.081L78.1789 157.026L78.8965 156.86L79.5586 156.585L80.2207 156.199L80.7734 155.702L81.2152 155.151L81.6017 154.544L81.9327 153.827L82.0989 153.111L82.1543 152.395M77.4614 157.081H67.1895H18.8663H8.53896V152.395M77.4614 157.081V152.395M77.4614 152.395H82.1555M77.4614 152.395H8.53896M82.5974 60.2091H83.2595V55.5228M82.5974 60.2091L82.542 60.1538H82.4866V60.0985L82.4312 60.0432M82.5974 60.2091V55.5228M2.6301 60.0445V55.524M2.795 60.2091H2.73962L2.68423 60.1538L2.62884 60.0985V60.0432M2.795 60.2091H3.40301V55.5228M2.795 60.2091V55.5228M2.795 55.5228H2.62884M2.795 55.5228V41.4085L2.85039 39.3136L3.01656 37.2186L3.29224 35.179L3.6233 33.084L4.12053 31.0444L4.72854 29.0047L5.44606 27.0203L6.27436 25.09L7.15805 23.215L8.15251 21.3399L9.25648 19.5755L10.4712 17.8111L11.7414 16.1572L13.1223 14.5587L14.5586 13.0154L16.1044 11.5815L17.7056 10.2029L19.3622 8.93485L21.0742 7.77741L22.897 6.67526L24.7197 5.62715L26.6533 4.74494L28.5868 3.91801L30.5745 3.25698L32.5621 2.64998L34.6606 2.15357L36.7036 1.76776L38.8021 1.49254L40.9005 1.32665L42.9989 1.27136L45.0974 1.32665L47.1958 1.49254L49.2942 1.76776L51.3927 2.15357L53.4357 2.64998L55.4234 3.25698L57.4111 3.91801L59.3446 4.74494L61.2781 5.62715L63.1009 6.67526L64.9237 7.77741L66.6356 8.93485L68.3476 10.2029L69.9488 11.5815L71.4405 13.0154L72.8768 14.5587L74.2577 16.1572L75.5279 17.8111L76.7426 19.5755L77.8466 21.3399L78.8411 23.215L79.7801 25.09L80.5531 27.0203L81.2706 29.0047L81.8786 31.0444L82.3758 33.084L82.7623 35.179L83.0379 37.2186L83.2041 39.3136L83.2595 41.4085M2.795 55.5228H3.40301M2.6301 55.5228V41.4085M2.6301 41.4085H2.79626M2.6301 41.4085L2.68549 39.3136L2.85165 37.2186L3.12733 35.1237L3.51379 33.0287L4.01102 30.9891L4.61902 28.9494L5.28116 26.965L6.10946 25.0347L6.99314 23.1044L8.04299 21.2847L9.14697 19.4649L10.3063 17.7558L11.6319 16.0466L13.0128 14.4481L14.4491 12.9048L15.9949 11.4709L17.5961 10.0923L19.2527 8.82425L21.0201 7.61152L22.7875 6.50937L24.6656 5.51656L26.5991 4.57905L28.5327 3.80742L30.5203 3.09109L32.5634 2.48409L34.6064 1.98769L36.7049 1.60187L38.8033 1.32665L40.9018 1.16076L43.0002 1.10547L45.0986 1.16076L47.1971 1.32665L49.2955 1.60187L51.3939 1.98769L53.437 2.48409L55.48 3.09109L57.4677 3.80742L59.4554 4.57905L61.3335 5.51656L63.2117 6.50937L64.979 7.61152L66.7464 8.82425L68.403 10.0923L70.0042 11.4709L71.55 12.9048L73.0417 14.4481L74.3673 16.0466L75.6928 17.7558L76.8521 19.4649L77.9561 21.2847L79.006 23.1044L79.8897 25.0347L80.718 26.965L81.4355 28.9494L81.9881 30.9891L82.4853 33.0287L82.8718 35.1237L83.1475 37.2186L83.3136 39.3136L83.369 41.4085M3.56791 60.0445L3.51253 60.0998V60.1551H3.45714L3.40175 60.2104M3.56791 55.5228V60.0432M3.56791 55.5228H3.40175M3.56791 55.5228V41.4085H3.40175M82.5974 55.5228H83.2595M82.5974 55.5228H82.4312V41.4085H82.5974V55.5228ZM83.2595 55.5228V41.4085M83.2595 55.5228H83.3703M83.2595 41.4085H83.3703V55.5228M83.3703 55.5228V60.0432M82.4312 60.0445V55.524M83.3703 60.0445V60.1551H83.3149L83.2595 60.2104M3.40301 55.5228V41.4085L3.4584 39.3136L3.62456 37.2186L3.90024 35.1237L4.2867 33.084L4.78393 31.0444L5.39193 29.0047L6.10946 27.0203L6.93775 25.09L7.87683 23.215L8.87129 21.3399L9.97527 19.5755L11.19 17.8664L12.5155 16.2125L13.8965 14.614L15.3882 13.1248L16.934 11.6908L18.5352 10.3122L20.2472 9.09948L22.0145 7.94204L23.8373 6.83989L25.6601 5.90238L27.5936 5.02016L29.5813 4.24853L31.5689 3.58749L33.612 3.03579L35.655 2.59468L37.7535 2.26417L39.8519 2.04424L41.9503 1.93365H44.0488L46.1472 2.04424L48.2457 2.26417L50.3441 2.59468L52.3871 3.03579L54.4302 3.58749L56.4179 4.24853L58.4055 5.02016L60.3391 5.90238L62.2172 6.83989L63.9846 7.94204L65.752 9.09948L67.4639 10.3122L69.0651 11.6908L70.611 13.1248L72.1027 14.614L73.4836 16.2125L74.8091 17.8664L76.0239 19.5755L77.1278 21.3399L78.1223 23.215L79.0614 25.09L79.8897 27.0203L80.6072 29.0047L81.2152 31.0444L81.7124 33.084L82.0989 35.1237L82.3746 37.2186L82.5407 39.3136L82.5961 41.4085M82.3683 41.5355L82.3192 39.4405L82.1606 37.3996L81.8912 35.3034L81.511 33.2072L81.0201 31.2203L80.4196 29.1781L79.7084 27.1912L78.9418 25.2597L78.009 23.3821L76.9654 21.5599L75.8665 19.7917L74.6568 18.0235L73.3917 16.4199L72.0158 14.8163L70.5291 13.3233L68.9871 11.8844L67.3897 10.556L65.7368 9.28296L63.9733 8.11923L62.1543 7.0661L60.2799 6.06826L58.4055 5.17976L56.4191 4.45715L54.4327 3.78857L52.4463 3.23059L50.3491 2.78319L48.3073 2.3911L46.2089 2.16363L44.1105 2.04675L42.012 2.04047L39.9136 2.14352L37.8139 2.35716L35.7696 2.73669L33.7253 3.17152L31.6797 3.71568L29.6895 4.37043L27.6993 5.08048L25.8187 5.95642L23.938 6.94294L22.1127 7.98476L20.3416 9.13718L18.6812 10.4002L17.075 11.7185L15.5241 13.1474L14.0286 14.6316L12.6427 16.2263L11.3675 17.8211L10.1465 19.5818L9.03619 21.3425L7.98131 23.1584L7.09133 25.0297L6.25674 26.9562L5.53292 28.9393L4.91862 30.9777L4.4151 32.9609L4.02235 35.0546L3.73911 37.1483L3.56666 39.1879L3.50497 41.2829M6.99188 47.6394L7.15805 47.6947M79.0072 47.6394L78.8411 47.6947M33.5566 47.6394H33.7227H33.612V47.5841H33.5566V47.4735M33.5566 47.6394V47.0324H33.8877M33.5566 47.6394H8.53896H3.84485V43.0083M52.333 47.6394H52.1127H51.6709M52.333 47.6394V47.0324H52.002M52.333 47.6394H77.4614M36.6495 47.6934V47.6381M49.1847 47.6934V47.6381M34.1633 47.0324H51.6696M34.1633 47.0324V47.3629M34.1633 47.0324H33.8877M33.8877 47.0324H33.7769L33.7215 47.0877L33.6661 47.143H33.6107V47.1983L33.5553 47.3088V47.3641M34.1633 47.3629V47.4735M34.1633 47.3629H33.5553M51.6709 47.4735V47.3629M51.6709 47.4735H52.2789M51.6709 47.4735V47.6394M51.6709 47.3629H34.1646M51.6709 47.3629V47.0324H52.002M51.6696 47.3629H52.2776V47.4735V47.5841H52.2222V47.6394H52.1115M52.002 47.0324H52.1127L52.1681 47.0877L52.2235 47.143L52.2789 47.1983V47.3641M51.6709 47.6394H34.1646M34.1633 47.4735H51.6696M34.1633 47.4735V47.6394H33.7215M33.5566 47.4735V47.3629M33.5566 47.4735H34.1646M8.53896 38.3208H77.4614M8.53896 38.3208L7.82144 38.3761L7.10392 38.542L6.44178 38.8172L5.77965 39.203L5.22703 39.6994L4.78519 40.2511L4.39873 40.8581L4.12305 41.5744L3.90276 42.2908L3.84737 43.0071M8.53896 38.3208V43.0071M77.4614 38.3208V43.0071M77.4614 38.3208L78.1789 38.3761L78.8965 38.542L79.5586 38.8172L80.2207 39.203L80.7734 39.6994L81.2152 40.2511L81.6017 40.8581L81.9327 41.5744L82.0989 42.2908L82.1543 43.0071M77.4614 47.6394H82.1555M77.4614 47.6394V43.0083M82.1555 47.6381V43.0071H77.4614M77.4614 43.0071H8.53896M3.84485 43.0071H8.53896M8.53896 43.0071V47.6381M71.2756 157.081V157.247M82.4312 52.7115H82.1555M82.1555 55.1923H82.4312M83.7013 52.381V52.4916L83.646 52.5469L83.5906 52.6022V52.6575H83.5352L83.4244 52.7128H83.369M83.3703 55.1923H83.5364L83.5918 55.2476L83.6472 55.3029L83.7026 55.3582V55.4687M3.56791 55.1923H3.84359M3.84485 52.7115H3.56917M2.29777 55.4675V55.3569L2.35316 55.3016L2.40855 55.2463H2.46394L2.51932 55.191H2.6301M2.6301 52.7115H2.57471L2.51932 52.6562H2.46394L2.40855 52.6009L2.35316 52.5456L2.29777 52.4903V52.3797M2.29777 50.0095V57.8389L2.24239 58.1694L2.07622 58.3894L1.80054 58.5553L1.52486 58.6105L1.1938 58.5553L0.973504 58.3894L0.807341 58.1694L0.751953 57.8389V50.0095L0.807341 49.7343L0.973504 49.4591L1.1938 49.2932L1.52486 49.2379L1.80054 49.2932L2.07622 49.4591L2.24239 49.7343L2.29777 50.0095Z" stroke="#002B4D" stroke-width="0.5" stroke-linecap="round" stroke-linejoin="round"/>
<path d="M16.6842 62.2307V63.4937H18.7159V64.3885H16.6842V66.4734H15.6797V61.3359H19.0697V62.2307H16.6855H16.6842Z" fill="#002B4D"/>
<path d="M23.1133 66.4734V61.3359H24.1178V66.4734H23.1133Z" fill="#002B4D"/>
<path d="M28.5469 66.4734V61.3359H31.9369V62.2307H29.5514V63.4359H31.5831V64.3307H29.5514V65.5786H31.9369V66.4734H28.5469Z" fill="#002B4D"/>
<path d="M35.8626 66.4734V61.3359H36.8671V65.5786H39.201V66.4734H35.8613H35.8626Z" fill="#002B4D"/>
<path d="M46.5689 65.7232C46.2001 66.2359 45.7167 66.4734 45.0143 66.4734H43.1562V61.3359H45.0143C45.7154 61.3359 46.2001 61.5747 46.5689 62.0862C46.8874 62.5261 46.8937 63.0526 46.8937 63.9047C46.8937 64.7567 46.8874 65.2833 46.5689 65.7232ZM44.9287 62.2307H44.162V65.5786H44.9287C45.2685 65.5786 45.514 65.4706 45.6802 65.2607C45.8677 65.037 45.8891 64.7127 45.8891 63.9034C45.8891 63.0941 45.8677 62.7699 45.6802 62.5462C45.6802 62.5462 45.475 62.2295 44.9287 62.2295V62.2307Z" fill="#002B4D"/>
<path d="M53.1616 66.4734H51.0078V61.3359H53.0748C54.0793 61.3359 54.6647 61.8989 54.6647 62.7787C54.6647 63.3492 54.2895 63.7174 54.0277 63.8393C54.3386 63.9838 54.7364 64.3081 54.7364 64.9943C54.7364 65.9544 54.0781 66.4734 53.1604 66.4734H53.1616ZM52.9955 62.2307H52.0123V63.4146H52.9955C53.4222 63.4146 53.6601 63.1758 53.6601 62.8226C53.6601 62.4695 53.421 62.2307 52.9955 62.2307ZM53.0609 64.3156H52.0136V65.5786H53.0609C53.5154 65.5786 53.7331 65.2896 53.7331 64.9427C53.7331 64.5959 53.5154 64.3156 53.0609 64.3156Z" fill="#002B4D"/>
<path d="M61.7544 66.5281L61.451 65.6182H59.6219L59.311 66.5281H58.2637L60.1355 61.3906H60.9235L62.8029 66.5281H61.7544ZM60.5547 62.905L59.9039 64.7737H61.1841L60.556 62.905H60.5547Z" fill="#002B4D"/>
<path d="M68.2388 64.4237H67.5162V66.4734H66.5117V61.3359H68.5283C69.5757 61.3359 70.1975 62.051 70.1975 62.9094C70.1975 63.6307 69.7569 64.0781 69.2572 64.2591L70.4065 66.4747H69.2433L68.2388 64.4262V64.4237ZM68.4629 62.2307H67.5162V63.588H68.4629C68.9035 63.588 69.193 63.3065 69.193 62.9094C69.193 62.5122 68.9035 62.2307 68.4629 62.2307Z" fill="#002B4D"/>
</g>
<defs>
<clipPath id="clip0_190_45652">
<rect width="85" height="156.643" fill="white" transform="translate(0.5 0.855469)"/>
</clipPath>
</defs>
</svg>
