<svg width="156" height="162" viewBox="0 0 156 162" fill="none" xmlns="http://www.w3.org/2000/svg">
<g clip-path="url(#clip0_190_45667)">
<path d="M150.674 60.8155H150.844M5.93588 60.8155H5.7663M17.1129 3.20461V7.4051H27.0987H27.2122L27.5528 7.29153L28.0069 7.23545H28.9711L29.3677 7.29153L29.7083 7.4051H29.8218H57.6796M17.1129 3.20461H139.553M17.1129 3.20461V2.9214M139.553 3.20461V7.4051M139.553 3.20461V2.9214M139.553 7.4051H129.567H129.454L129.113 7.29153L128.659 7.23545H127.695L127.241 7.29153L126.958 7.4051H126.844M139.553 7.4051H139.723L139.892 7.34902L140.006 7.29294L140.119 7.17937L140.233 7.06581L140.289 6.95224L140.345 6.7826V6.61295M4.74459 52.5855V14.1587M4.74459 14.1587L4.80065 12.967L5.0277 11.8313L5.3108 10.6396L5.76489 9.56142L6.27504 8.48326L6.95618 7.46118L7.69337 6.55266L8.54409 5.70163L9.45227 4.96416L10.474 4.28278L11.5517 3.77244L12.6295 3.31818L13.8208 3.03497L15.0121 2.80784L16.2033 2.75176M4.74459 14.1587H4.91418M3.49585 52.5855V14.1587M3.49585 14.1587L3.55191 12.9095L3.72149 11.7177L4.0046 10.4685L4.45869 9.33289L4.96884 8.19725L5.59251 7.11908L6.3297 6.097L7.18042 5.18849L8.14466 4.33745L9.1089 3.59999L10.1867 2.97608L11.3219 2.46574L12.5132 2.01149L13.7044 1.72828L14.9532 1.55863L16.2019 1.44507M3.49585 14.1587H3.32627M140.348 2.75036H140.461M140.461 2.75036V2.92M140.461 2.75036L141.653 2.80644L142.844 3.03357L143.979 3.31678L145.114 3.77103L146.192 4.28137L147.156 4.96276L148.12 5.70023L148.971 6.55126L149.708 7.45978L150.332 8.48186L150.9 9.56002L151.354 10.6382L151.637 11.8299L151.806 12.9656L151.863 14.1573M16.3197 2.75036H16.2061V2.92M140.29 1.44507H140.46M16.3757 1.44507H16.2061V1.3315H16.4332M153.17 52.5841V14.1587H153.34V52.5841M151.865 52.5841V14.1587H151.752V52.5841M15.8656 49.5768V49.6329M140.802 49.5768V49.6329M15.2405 161.051L15.2966 160.597M15.2405 161.051H24.7722M15.2405 161.051V161.22M15.2405 161.051H14.6168M24.7722 161.051L24.6587 160.597M24.7722 161.051V161.22M25.3972 161.051H24.7736M141.425 161.051L141.369 160.597M141.425 161.051H131.894M141.425 161.051H142.049M141.425 161.051V161.22M131.894 161.051L131.95 160.597M131.894 161.051H131.213M131.894 161.051V161.22M131.213 161.051H131.269M131.213 161.051L131.326 160.597M131.213 161.051V161.107L131.269 161.163V161.219H131.438M142.674 160.597H13.9932M142.674 160.597V152.536M142.674 160.597L143.638 160.54L144.603 160.371L145.511 160.088L146.419 159.691L147.214 159.181L148.008 158.557L148.69 157.875L149.257 157.138L149.767 156.287L150.164 155.378L150.447 154.47L150.617 153.505L150.673 152.54M13.9932 160.597L13.0289 160.54L12.0647 160.371L11.1565 160.088L10.2483 159.691L9.45367 159.181L8.65901 158.557L7.97788 157.875L7.35421 157.138L6.90012 156.287L6.50349 155.378L6.16292 154.47L5.99334 153.505L5.93728 152.54M13.9932 160.597V152.536M142.674 49.6329H150.674V152.536H142.674M142.674 49.6329H13.9932M142.674 49.6329V152.536M13.9932 152.536H142.674M13.9932 152.536H5.93588V49.6329H13.9932M13.9932 152.536V49.6329M59.0419 48.385V48.5547V48.4411L59.098 48.385V48.329H59.154L59.2101 48.2729H59.3236M97.6241 48.385V48.5547M97.6241 48.5547V48.4411L97.568 48.385L97.512 48.329L97.4559 48.2729H97.2863M97.6241 48.5547V49.4057M97.6241 48.5547H96.6598M97.2835 48.2715H96.6598M96.6598 48.2715V48.5547M96.6598 48.2715H60.0075M96.6598 48.5547V49.4057M96.6598 48.5547H60.0075M60.0075 48.2715V48.5547M60.0075 48.2715H59.3264M60.0075 48.5547H59.0433M59.0419 49.4071V48.5561M59.0419 49.4071L59.2115 49.5207M59.0419 49.4071H60.0061M59.2129 49.5193H60.0075H96.6598H97.4545M60.0075 49.4071V48.5561M60.0075 49.4071V49.5207M60.0075 49.4071H96.6598M96.6598 49.4071V49.5207M96.6598 49.4071H97.6241L97.4545 49.5207M139.496 0.480469H17.1129V0.821162H139.496M139.496 0.480469H139.665L139.779 0.53655L139.892 0.592631L140.006 0.648712L140.119 0.704794L140.233 0.760875L140.289 0.874439L140.345 0.988004M139.496 0.480469V0.821162M140.346 0.990808H139.95H139.894M139.496 0.821162H139.723L139.779 0.877243H139.835V0.933325H139.891L139.947 0.989406M16.7724 0.990808H16.7163V0.934727H16.7724L16.8284 0.878645H16.8845L16.9405 0.822564H17.1101M16.7149 0.990808H16.3183L16.3743 0.877243L16.4304 0.763679L16.5439 0.707598L16.6574 0.651516L16.771 0.595435L16.8845 0.539354L16.998 0.483273H17.1115M57.681 7.4051H57.7946L58.1351 7.29153L58.5318 7.23545H59.496L59.9501 7.29153L60.2906 7.4051H60.4042H96.2618H96.3753L96.7159 7.29153L97.1125 7.23545H98.1342L98.5309 7.29153L98.8714 7.4051H98.9849H126.843M16.3183 2.97749V6.61015V6.77979L16.3743 6.94944L16.4304 7.063L16.5439 7.17657L16.6574 7.29013L16.771 7.34621L16.9405 7.40229H17.1101M16.3183 2.97749V2.9214M16.3183 2.97749V3.03357H16.3743L16.4304 3.08965L16.5439 3.14573H16.6574L16.771 3.20181H17.1115M140.348 2.97749V6.61015M140.348 2.97749V3.03357H140.292L140.236 3.08965L140.122 3.14573H140.009L139.895 3.20181H139.554M140.348 2.97749V2.9214M16.3183 2.9214H17.1129M16.3183 2.9214V2.80784V2.58071V1.78576H17.1129M140.348 2.9214H139.553M140.348 2.9214H140.461L141.653 2.97749L142.788 3.14713L143.979 3.48782L145.057 3.8846L146.078 4.45242L147.1 5.07632L148.008 5.81379L148.859 6.66483L149.596 7.57334L150.22 8.53794L150.73 9.6161L151.184 10.6943L151.467 11.8299L151.694 13.0216L151.75 14.1573M140.348 2.9214V2.80784V2.58071V1.78576M139.553 2.9214H17.1129M139.553 2.9214V1.78576H140.348M17.1129 2.9214V1.78576M140.348 1.78576L140.292 1.44507L140.065 1.10437L139.782 0.934727L139.385 0.821162M17.1129 1.78576V1.72968L17.169 1.6736H17.2825M139.383 1.67219H17.2839V0.821162M17.2839 0.821162H139.383M17.2839 0.821162L17.0569 0.877243L16.8873 0.933325L16.5467 1.10297L16.3771 1.44366L16.3211 1.78436M139.382 0.821162V1.67219H139.438L139.494 1.72828H139.55V1.78436M3.32627 14.1587L3.38233 12.9095L3.55191 11.6603L3.89248 10.4685L4.2891 9.27681L4.85671 8.14116L5.48039 7.00552L6.21758 6.04092L7.0683 5.07632L8.03254 4.22529L9.05424 3.48782L10.132 2.80644L11.2672 2.2961L12.4585 1.84184L13.6498 1.55863L14.8985 1.38898L16.2033 1.3329M3.32627 14.1587V52.5855M4.91418 14.1587L4.97024 13.023L5.13982 11.8313L5.48039 10.6957L5.87701 9.6175L6.44463 8.53934L7.0683 7.57474L7.80549 6.66623L8.65621 5.8152L9.56439 5.07773L10.5286 4.45382L11.6064 3.886L12.6841 3.48923L13.8194 3.14853L15.0107 2.97889L16.2019 2.92281M4.91418 14.1587V52.5855M16.2061 2.9214H16.3197M140.234 1.3315H140.461M140.461 1.3315V1.44507L141.71 1.55863L142.959 1.72828L144.15 2.01149L145.341 2.46574L146.477 2.97608L147.554 3.59999L148.519 4.33745L149.483 5.18849L150.277 6.097L151.015 7.11908L151.696 8.19725L152.206 9.33289L152.603 10.4685L152.943 11.7177L153.113 12.9095L153.169 14.1587M140.461 1.3315L141.71 1.38758L142.959 1.55723L144.207 1.84044L145.399 2.2947L146.534 2.80504L147.612 3.48642L148.633 4.22389L149.598 5.07492L150.392 6.03952L151.187 7.00412L151.811 8.13976L152.378 9.27541L152.775 10.4671L153.115 11.6589L153.285 12.9081L153.341 14.1573M58.9858 49.5768H97.6815M58.9858 49.5768H13.9932M58.9858 49.5768V49.4071M142.673 49.5768H97.6801V49.4071M14.0492 38.282H142.617V46.1712M14.0492 38.282V46.1712H142.617M14.0492 38.282L13.085 38.3381L12.1207 38.5077L11.2126 38.791L10.3618 39.1877L9.51113 39.6981L8.77394 40.2659L8.0928 40.9473L7.46913 41.6847L6.95898 42.4797L6.56235 43.3882L6.27925 44.2967L6.10967 45.2052L5.99614 46.1698M142.617 46.1712H145.453L146.362 46.1152H149.708L150.105 46.1712H150.615M150.617 46.1712L150.561 45.2066L150.391 44.2981L150.108 43.3896L149.654 42.4811L149.2 41.6861L148.576 40.9487L147.895 40.2673L147.1 39.6995L146.306 39.1891L145.397 38.7924L144.489 38.5091L143.581 38.3395L142.617 38.2834M58.9858 48.5533V48.4397L59.0419 48.3262L59.1554 48.2701L59.269 48.214H97.3396L97.4531 48.2701L97.5666 48.3262L97.6801 48.4397V48.5533M97.3396 48.2154L97.4531 48.2715L97.5666 48.3276L97.6801 48.4411V48.5547V49.5193M58.9298 49.5193L58.9858 48.5547V48.4411L59.0419 48.3276L59.1554 48.2715L59.269 48.2154M142.674 49.5193H150.674L150.618 46.1698M142.674 49.5193H97.6815M142.674 49.5193L142.618 46.1698M13.9932 49.5193H58.9284L58.9844 48.5547M13.9932 49.5193L14.0492 46.1698M13.9932 49.5193H5.93588L5.99194 46.1698M5.99334 46.1712H6.56095L6.95758 46.1152H10.3058L11.214 46.1712H14.0506M148.29 49.5768V49.6329M147.497 49.5768V49.6329M9.17056 49.5768V49.6329M8.31845 49.5768V49.6329M24.7722 161.22H15.2405M24.7722 161.22H24.8857M15.2405 161.22H14.7304M14.6168 161.051V160.597M14.6168 161.051V161.164H14.6729M14.7304 161.22H14.6743L14.6182 161.164V161.051M14.7304 161.22H15.1844M14.7304 161.22H14.7864M14.7304 161.22V161.164M25.2837 161.22H24.7736M141.425 161.22H131.894M141.425 161.22H141.88M131.894 161.22H131.44M142.049 161.051L141.993 160.597M142.049 161.051V161.164H141.993V161.22H141.88M141.88 161.22H141.483M141.88 161.22H141.936M131.553 161.22H131.384M155.043 70.5203L155.156 70.4642H155.212L155.326 70.4081L155.382 70.3521L155.438 70.296L155.494 70.1824V70.1263L155.55 70.0128M155.043 70.5203H151.015V52.5841M155.043 70.5203V51.1653M155.553 70.01V51.677M155.043 51.1653L155.156 51.2214H155.212L155.326 51.2774L155.382 51.3335L155.438 51.3896L155.494 51.5032V51.5592L155.55 51.6728M155.043 51.1653H153.453V52.5841M151.012 52.5869H150.956L150.9 52.643V52.6991L150.844 52.7552V70.3507V70.4067H150.9V70.4628L150.956 70.5189H151.012M153.453 52.5855H151.013M1.62343 51.1653L1.50991 51.2214H1.45385L1.34033 51.2774L1.28427 51.3335L1.22821 51.3896L1.17214 51.5032L1.11608 51.5592V51.6728M1.62343 51.1653H3.21274M1.62343 51.1653V70.5203M1.11328 51.677V70.01M1.62343 70.5203L1.50991 70.4642H1.45385L1.34033 70.4081L1.28427 70.3521L1.22821 70.296L1.17214 70.1824L1.11608 70.1263V70.0128M1.62343 70.5203H5.65137M5.65277 52.5855H3.21274V51.1667M5.65277 52.5855H5.70883L5.76489 52.6416V52.7552M5.65277 52.5855V70.5217M5.7663 52.7552V70.3507M150.844 55.9911V55.935H150.788L150.732 55.8789V55.7653L150.675 55.7093M150.674 65.9805L150.73 65.9245V65.8109L150.786 65.7548L150.842 65.6987M5.7663 65.6959H5.82236L5.87842 65.752V65.8081L5.93448 65.8642V65.9777M5.93588 55.7065V55.82L5.87982 55.8761V55.9322H5.82376L5.7677 55.9883M15.9216 49.5768H13.5951H12.0633M6.61701 49.4632V49.5193M25.4533 161.051L25.3398 160.597M14.6729 161.107L14.6168 161.163H14.6729V161.219M25.1127 161.22H25.3398L25.3958 161.164V161.108L25.4519 161.052H25.3958M141.936 161.164V161.22M141.936 161.22H141.992V161.107M5.65277 70.5203H5.70883L5.76489 70.4642V70.3507" stroke="#002B4D" stroke-width="0.5" stroke-linecap="round" stroke-linejoin="round"/>
<path d="M37.1055 68.5282H39.9646V69.79H37.1055V72.7315H35.6914V65.4844H40.4635V66.7462H37.1055V68.5282Z" fill="#002B4D"/>
<path d="M47.1562 72.7315V65.4844H48.5704V72.7315H47.1562Z" fill="#002B4D"/>
<path d="M55.832 72.7315V65.4844H60.6042V66.7462H57.2462V68.4455H60.1052V69.7073H57.2462V71.4682H60.6042V72.7301H55.832V72.7315Z" fill="#002B4D"/>
<path d="M67.4604 72.7315V65.4844H68.8745V71.4696H72.1597V72.7315H67.459H67.4604Z" fill="#002B4D"/>
<path d="M83.4944 71.6729C82.9758 72.395 82.2933 72.7315 81.3066 72.7315H78.6914V65.4844H81.3066C82.2933 65.4844 82.9758 65.8209 83.4944 66.5429C83.9429 67.1626 83.9513 67.9057 83.9513 69.1072C83.9513 70.3088 83.9415 71.0518 83.4944 71.6715V71.6729ZM81.1847 66.7476H80.1055V71.4696H81.1847C81.6626 71.4696 82.0088 71.3168 82.2428 71.021C82.5077 70.7055 82.5371 70.2471 82.5371 69.1072C82.5371 67.9674 82.5077 67.5089 82.2428 67.1935C82.2428 67.1935 81.9541 66.7462 81.1847 66.7462V66.7476Z" fill="#002B4D"/>
<path d="M93.635 72.7315H90.6035V65.4844H93.5131C94.9272 65.4844 95.7513 66.2779 95.7513 67.5201C95.7513 68.3249 95.2229 68.8436 94.8557 69.0161C95.293 69.2194 95.8522 69.6778 95.8522 70.6438C95.8522 71.9982 94.9258 72.7301 93.635 72.7301V72.7315ZM93.4023 66.7462H92.019V68.416H93.4023C94.0036 68.416 94.3385 68.0795 94.3385 67.5818C94.3385 67.0841 94.0022 66.7476 93.4023 66.7476V66.7462ZM93.4934 69.6877H92.019V71.4696H93.4934C94.1339 71.4696 94.4394 71.0631 94.4394 70.5737C94.4394 70.0844 94.1339 69.6891 93.4934 69.6891V69.6877Z" fill="#002B4D"/>
<path d="M107.484 72.8096L107.057 71.5267H104.482L104.045 72.8096H102.57L105.207 65.5625H106.315L108.96 72.8096H107.484ZM105.795 67.7006L104.879 70.3378H106.68L105.795 67.7006Z" fill="#002B4D"/>
<path d="M119.479 72.7315L118.064 69.8405H117.047V72.7315H115.633V65.4844H118.472C119.947 65.4844 120.823 66.4924 120.823 67.7024C120.823 68.7203 120.203 69.3512 119.5 69.6049L121.118 72.7287H119.481L119.479 72.7315ZM118.381 66.7462H117.048V68.66H118.381C119.001 68.66 119.408 68.2632 119.408 67.7038C119.408 67.1444 119.002 66.7462 118.381 66.7462Z" fill="#002B4D"/>
</g>
<defs>
<clipPath id="clip0_190_45667">
<rect width="155" height="161.301" fill="white" transform="translate(0.832031 0.199219)"/>
</clipPath>
</defs>
</svg>
