<svg width="16" height="16" viewBox="0 0 16 16" fill="none" xmlns="http://www.w3.org/2000/svg">
<path d="M10.1427 8.2988C11.6211 7.5636 12.6316 6.0952 12.6316 4.4C12.6316 1.97 10.5579 0 8 0C5.44211 0 3.36842 1.97 3.36842 4.4C3.36842 6.0952 4.37895 7.5636 5.85726 8.2988C2.48 9.236 0 12.3236 0 16H16C16 12.3236 13.52 9.236 10.1427 8.2988ZM4.21053 4.4C4.21053 2.4148 5.91032 0.8 8 0.8C10.0897 0.8 11.7895 2.4148 11.7895 4.4C11.7895 6.3852 10.0897 8 8 8C5.91032 8 4.21053 6.3852 4.21053 4.4ZM8 8.8C11.6779 8.8 14.7171 11.6052 15.1141 15.2H0.885895C1.28295 11.6052 4.32211 8.8 8 8.8Z" fill="#002B4D"/>
</svg>
