<svg xmlns="http://www.w3.org/2000/svg" fill="none" viewBox="0 0 20 21" height="21" width="20">
<path fill="#002B4D" d="M10 0.5C4.477 0.5 0 4.977 0 10.5C0 16.023 4.477 20.5 10 20.5C15.523 20.5 20 16.023 20 10.5C20 4.977 15.523 0.5 10 0.5ZM10 19.5C5.0375 19.5 1 15.4625 1 10.5C1 5.5375 5.0375 1.5 10 1.5C14.9625 1.5 19 5.5375 19 10.5C19 15.4625 14.9625 19.5 10 19.5Z"></path>
<path fill="#002B4D" d="M10.5263 8.39917H9.47363V15.7676H10.5263V8.39917Z"></path>
<path fill="#002B4D" d="M9.99935 7.37504C10.4596 7.37504 10.8327 7.00194 10.8327 6.54171C10.8327 6.08147 10.4596 5.70837 9.99935 5.70837C9.53911 5.70837 9.16602 6.08147 9.16602 6.54171C9.16602 7.00194 9.53911 7.37504 9.99935 7.37504Z"></path>
</svg>
