<svg width="16" height="16" viewBox="0 0 16 16" fill="none" xmlns="http://www.w3.org/2000/svg">
<path d="M8 4C5.76623 4 4 5.81818 4 8C4 10.1818 5.81818 12 8 12C10.1818 12 12 10.1818 12 8C12 5.81818 10.2338 4 8 4ZM8 10.5974C6.5974 10.5974 5.4026 9.45454 5.4026 8C5.4026 6.54545 6.54546 5.4026 8 5.4026C9.45455 5.4026 10.5974 6.54545 10.5974 8C10.5974 9.45455 9.4026 10.5974 8 10.5974Z" fill="#002B4D"/>
<circle cx="12.3309" cy="4.47811" r="1" transform="rotate(-25.2402 12.3309 4.47811)" fill="#002B4D"/>
<path d="M14.72 1.33333C13.8667 0.426667 12.6933 0 11.3067 0H4.69333C1.86667 0 0 1.86667 0 4.69333V11.3067C0 12.6933 0.48 13.92 1.33333 14.7733C2.18667 15.5733 3.36 16 4.69333 16H11.2533C12.64 16 13.8133 15.5733 14.6667 14.72C15.52 13.8667 16 12.6933 16 11.3067V4.69333C16 3.30667 15.5733 2.13333 14.72 1.33333ZM14.5067 11.3067C14.5067 12.2667 14.1867 13.12 13.6533 13.6533C13.0667 14.1867 12.2667 14.5067 11.3067 14.5067H4.69333C3.73333 14.5067 2.93333 14.1867 2.34667 13.6533C1.76 13.0667 1.44 12.2667 1.44 11.2533V4.69333C1.44 3.73333 1.76 2.88 2.29333 2.34667C2.88 1.81333 3.68 1.49333 4.64 1.49333H11.3067C12.2667 1.49333 13.0667 1.81333 13.6533 2.34667C14.24 2.93333 14.5067 3.73333 14.5067 4.69333V11.3067Z" fill="#002B4D"/>
</svg>
