<svg xmlns="http://www.w3.org/2000/svg" fill="none" viewBox="0 0 19 21" height="21" width="19">
<path fill="#002B4D" d="M10 13.668C10.5523 13.668 11 13.2203 11 12.668C11 12.1157 10.5523 11.668 10 11.668C9.44772 11.668 9 12.1157 9 12.668C9 13.2203 9.44772 13.668 10 13.668Z"></path>
<path fill="#002B4D" d="M3.26563 20.7932H15.7344C16.8773 20.7932 17.8125 19.8615 17.8125 18.7227V9.40539C17.8125 8.26661 16.8773 7.33488 15.7344 7.33488H5.86328V5.26437C5.86328 3.26632 7.49513 1.64097 9.5 1.64097C11.5049 1.64097 13.1367 3.26632 13.1367 5.26437H14.1758C14.1758 2.6959 12.0784 0.605713 9.5 0.605713C6.92157 0.605713 4.82422 2.6959 4.82422 5.26437V7.33488H3.26563C2.12266 7.33488 1.1875 8.26661 1.1875 9.40539V18.7227C1.1875 19.8615 2.12266 20.7932 3.26563 20.7932ZM2.22656 9.40539C2.22656 8.83445 2.69258 8.37014 3.26563 8.37014H15.7344C16.3074 8.37014 16.7734 8.83445 16.7734 9.40539V18.7227C16.7734 19.2936 16.3074 19.758 15.7344 19.758H3.26563C2.69258 19.758 2.22656 19.2936 2.22656 18.7227V9.40539Z"></path>
</svg>
