<svg width="52" height="52" viewBox="0 0 52 52" fill="none" xmlns="http://www.w3.org/2000/svg">
<path d="M32.9201 8.82999C31.5101 9.16999 29.8501 10.31 29.9601 11.95C30.0201 12.9 30.9201 13.75 31.9001 13.75C32.9601 13.75 33.8001 12.83 34.8301 12.8C35.5301 12.78 36.1801 13.18 36.4901 13.81C36.5201 13.87 36.5401 13.94 36.5701 14C36.5701 14.01 36.5801 14.03 36.5901 14.05C36.5901 14.08 36.6001 14.1 36.6101 14.13C36.6401 14.24 36.6601 14.35 36.6701 14.43V14.51V14.63V14.75C36.6701 14.93 36.6401 15.1 36.6001 15.26C36.5701 15.42 36.4901 15.56 36.4301 15.7C36.3501 15.83 36.2701 15.96 36.1501 16.06C36.0401 16.17 35.9101 16.27 35.7501 16.35C35.6001 16.44 35.4201 16.5 35.2301 16.56C35.2101 16.56 35.1901 16.57 35.1601 16.58C35.0401 16.61 34.8101 16.65 34.5001 16.68H34.3801C34.3801 16.68 34.4001 16.68 34.3901 16.68C34.1101 16.7 33.7801 16.71 33.4201 16.68C33.4201 16.68 33.4001 16.68 33.3901 16.68C33.3901 16.68 33.3801 16.68 33.3701 16.68C33.2401 16.67 33.1101 16.65 32.9801 16.64C32.5901 16.59 32.1901 16.5 31.7901 16.39C31.7701 16.39 31.7501 16.38 31.7301 16.37C31.6101 16.33 31.4801 16.3 31.3601 16.26C31.0701 16.17 30.8601 16.09 30.5601 15.98L30.1201 15.8L29.7001 15.61C29.1001 15.35 28.4901 15.09 27.8701 14.85C26.6301 14.37 25.3601 13.94 24.0501 13.63C22.7401 13.3 21.3901 13.09 20.0201 13C18.6501 12.92 17.2401 12.99 15.8501 13.28C15.1501 13.42 14.4601 13.61 13.7901 13.86C13.4501 13.98 13.1201 14.13 12.7901 14.27C12.6201 14.35 12.4501 14.44 12.2801 14.52C12.1101 14.61 11.9401 14.7 11.8101 14.77L11.4001 15.01H11.3701L11.3001 15.07L11.2401 15.11L11.1301 15.19L10.9001 15.35C10.5901 15.55 10.3001 15.8 10.0101 16.04C9.44012 16.54 8.91012 17.1 8.47012 17.75C8.03012 18.39 7.65012 19.09 7.38012 19.83C7.24012 20.2 7.13012 20.58 7.04012 20.98C7.00012 21.18 6.96012 21.38 6.93012 21.59C6.92012 21.69 6.90012 21.8 6.89012 21.91V22.08C6.89012 22.08 6.87012 22.16 6.87012 22.21C6.87012 22.21 6.87012 22.26 6.87012 22.3V22.73C6.87012 22.91 6.90012 23.1 6.91012 23.28C6.96012 23.64 7.05012 24 7.17012 24.35C7.29012 24.7 7.45012 25.03 7.63012 25.35C9.18012 28.03 12.6201 28.94 15.3001 27.43C15.9401 27.07 16.4901 26.57 16.9101 25.97C17.2801 25.44 17.6601 24.86 17.8901 24.25C18.0601 23.81 18.1701 23.29 18.2001 22.78C18.2601 21.53 17.8001 20.3 16.3201 20.24C15.2201 20.2 14.3001 20.81 14.0701 21.89C13.9001 22.71 13.9401 23.68 13.0401 24.08C12.9401 24.13 12.8301 24.16 12.7101 24.2C12.6501 24.2 12.6001 24.22 12.5401 24.23H12.4501L12.4101 24.24H12.3901C12.3901 24.24 12.2701 24.24 12.4701 24.25L12.1001 24.23C12.0501 24.22 12.0401 24.21 12.0101 24.22C11.9001 24.2 11.7801 24.16 11.6701 24.12C11.5601 24.07 11.4501 24.02 11.3401 23.95L11.1901 23.84C11.1901 23.84 11.1001 23.76 11.0501 23.72C11.0101 23.67 10.9701 23.63 10.9201 23.58L10.8101 23.43C10.7401 23.32 10.6801 23.21 10.6301 23.1C10.5801 22.98 10.5501 22.86 10.5201 22.74L10.4901 22.55C10.4901 22.48 10.4901 22.42 10.4801 22.35V22.22C10.4801 22.21 10.4801 22.18 10.4801 22.16C10.4801 22.12 10.4801 22.06 10.4801 22.01C10.4801 21.9 10.5001 21.79 10.5101 21.67C10.5401 21.44 10.5901 21.2 10.6601 20.97C10.7901 20.5 10.9901 20.05 11.2501 19.62C11.5001 19.19 11.8301 18.8 12.1801 18.42C12.3701 18.24 12.5501 18.05 12.7601 17.89L12.9101 17.76L12.9901 17.7L13.0301 17.67C13.0301 17.67 13.0801 17.63 13.0101 17.68L13.0401 17.66L13.4301 17.39C13.5701 17.29 13.6801 17.23 13.7901 17.16C13.9001 17.09 14.0101 17.02 14.1201 16.96C14.3701 16.83 14.6101 16.69 14.8701 16.58C15.3801 16.34 15.9101 16.15 16.4601 16C17.0101 15.85 17.5701 15.75 18.1501 15.69C18.7201 15.62 19.3101 15.62 19.8901 15.63C20.4101 15.64 20.9301 15.69 21.4501 15.77C21.4401 15.86 21.4201 15.96 21.4001 16.08V16.17L21.3801 16.19V16.22V16.26C21.3701 16.31 21.3601 16.36 21.3501 16.42C21.3301 16.55 21.3201 16.69 21.3001 16.83C21.2901 16.98 21.2701 17.13 21.2601 17.29C21.2101 17.94 21.1801 18.71 21.2101 19.59C21.2501 20.47 21.3401 21.45 21.5601 22.49C21.6101 22.75 21.6801 23.02 21.7501 23.28C21.7801 23.41 21.8201 23.55 21.8601 23.68C21.9001 23.82 21.9501 23.97 21.9901 24.11C22.1501 24.56 22.4201 25.22 22.7001 25.73C22.8201 25.95 22.9401 26.16 23.0701 26.38C22.2201 26.47 21.4601 26.73 20.6201 27.32C19.8001 27.9 19.2901 28.45 18.9801 29.18C18.7001 29.85 18.1301 32.02 20.0801 32.49C20.2001 32.52 20.3301 32.55 20.4601 32.56C21.1401 32.64 21.8001 32.32 22.1901 31.65C22.2101 31.62 22.2201 31.59 22.2401 31.57C22.2401 31.56 22.2501 31.54 22.2601 31.53C22.3501 31.35 22.4201 31.17 22.4601 30.97C22.8401 29.39 23.9401 29.04 24.4901 28.95C24.5101 28.95 24.5301 28.95 24.5401 28.95C24.5901 28.95 24.6301 28.94 24.6801 28.93C25.4001 29.96 26.1901 30.96 26.9401 31.97C27.6901 32.98 28.4101 34 28.9401 35.02C29.2001 35.53 29.4101 36.03 29.5301 36.52C29.5701 36.64 29.5801 36.76 29.6101 36.88C29.6301 36.99 29.6801 37.21 29.6901 37.31C29.7801 37.96 29.7201 38.48 29.6401 38.83C29.6301 38.88 29.6101 38.93 29.6001 38.98C29.5901 39.03 29.5701 39.08 29.5601 39.13C29.5601 39.13 29.5601 39.15 29.5601 39.16C29.5401 39.21 29.5301 39.25 29.5101 39.3C29.3501 39.71 29.1201 40.08 28.8501 40.4C28.2901 41.04 27.5501 41.44 26.8101 41.58C26.7901 41.58 26.7601 41.58 26.7401 41.59C26.3901 41.65 25.5901 41.7 24.7601 41.34C24.1701 41.09 23.7401 40.68 23.4401 40.29C23.1401 39.89 22.9701 39.49 22.8901 39.15C22.8201 38.9 22.8001 38.31 22.8001 38.03V37.88C22.8001 37.82 22.8001 37.75 22.7901 37.69C22.6701 36.48 21.5901 35.6 20.3801 35.73C20.3201 35.73 20.2501 35.75 20.1801 35.76C20.1701 35.76 20.1501 35.76 20.1401 35.76C20.0901 35.77 20.0401 35.78 19.9901 35.8C19.9701 35.8 19.9401 35.81 19.9201 35.82C19.8701 35.84 19.8201 35.85 19.7701 35.87C19.7501 35.87 19.7301 35.89 19.7101 35.9C19.6601 35.92 19.6001 35.95 19.5501 35.98C19.2701 36.13 19.0001 36.36 18.7901 36.67C18.7901 36.68 18.7801 36.69 18.7701 36.7C18.7501 36.73 18.7301 36.76 18.7101 36.79C18.5801 37.01 18.4901 37.25 18.4501 37.51C18.3001 38.24 18.4101 39.24 18.9701 40.55C19.2601 41.28 19.7401 42.13 20.4901 42.91C21.2401 43.68 22.2501 44.41 23.5101 44.81C23.8201 44.92 24.1401 44.99 24.4801 45.06C24.6401 45.1 24.8501 45.11 25.0301 45.14C25.2101 45.16 25.4501 45.18 25.5501 45.17C25.5801 45.17 25.6001 45.17 25.6301 45.17C25.9001 45.17 26.0801 45.17 26.0801 45.17H26.1001H26.1701H26.3001L26.5701 45.14C26.9301 45.11 27.2901 45.04 27.6401 44.95C29.0701 44.59 30.5801 43.85 31.5601 42.6C32.0501 41.97 32.4301 41.26 32.6901 40.48C32.7601 40.29 32.8201 40.09 32.8601 39.89C32.9001 39.69 32.9501 39.5 32.9801 39.26L33.0201 38.92C33.0301 38.8 33.0501 38.69 33.0401 38.62V38.05C33.0201 37.61 32.9701 37.2 32.8801 36.82C32.8401 36.61 32.8101 36.52 32.7601 36.31C32.7001 36.12 32.6601 35.92 32.5901 35.74C32.3301 35 31.8601 34.19 31.4801 33.57C30.7101 32.33 29.8401 31.34 28.9901 30.37C28.7301 30.07 28.7001 30.01 28.2601 29.44C28.7701 29.57 29.1301 29.65 29.6501 29.72C31.7201 29.99 34.7201 29.17 35.0401 26.73C35.1701 25.75 34.3101 24.6 33.2101 24.76C32.1201 24.92 31.6901 26.1 30.8201 26.62C29.9101 27.16 28.7501 27.04 27.7601 26.87C27.6401 26.85 27.5101 26.83 27.3901 26.8C27.1001 26.74 26.9701 26.7 26.4001 26.54C24.0801 22.23 24.5601 18.15 25.1901 16.67C26.6601 17.34 29.4501 18.55 29.4501 18.55C29.7401 18.69 30.1101 18.86 30.4301 18.98C31.0901 19.24 31.7701 19.46 32.4901 19.62C32.6601 19.66 32.8301 19.7 33.0001 19.73C33.5601 19.84 34.1401 19.89 34.7001 19.86C38.0101 19.91 40.1301 17.96 40.4301 14.77C40.8101 10.73 36.6401 7.92999 32.9801 8.81999" fill="#002B4D"/>
</svg>
