<svg width="86" height="92" viewBox="0 0 86 92" fill="none" xmlns="http://www.w3.org/2000/svg">
<g clip-path="url(#clip0_190_45637)">
<path d="M82.4809 38.6286H82.5742M2.82027 38.6286H2.72693M2.16461 34.2673V13.9046M2.16461 13.9046L2.19546 13.2731L2.32042 12.6713L2.47624 12.0397L2.72616 11.4684L3.00693 10.897L3.38181 10.3554L3.78755 9.87396L4.25577 9.42297L4.75561 9.03217L5.31793 8.67108L5.9111 8.40064L6.50428 8.15992L7.15994 8.00984L7.81559 7.88948L8.47125 7.85976M2.16461 13.9046H2.25794M1.47733 34.2673V13.9046M1.47733 13.9046L1.50818 13.2426L1.60152 12.6111L1.75733 11.9491L2.00725 11.3473L2.28803 10.7455L2.63128 10.1741L3.03702 9.63249L3.50523 9.15105L4.03593 8.70006L4.56662 8.30926L5.1598 7.97863L5.7846 7.70819L6.44026 7.46747L7.09591 7.31738L7.78319 7.22749L8.47048 7.1673M1.47733 13.9046H1.38399M8.47279 7.93257L76.3602 7.94817L76.7975 7.94891L8.97186 6.83594M76.86 7.16656H8.47279M8.47279 7.16656L76.86 7.09226M8.47279 7.16656V7.10638V7.94817V7.85827M83.8547 34.2673V13.9046H83.948V34.2673M83.1366 34.2673V13.9046H83.0741V34.2673M8.28535 32.6729V32.7026M77.0475 32.6729V32.7026M7.94132 91.746L7.97218 91.5053M7.94132 91.746H13.1873M7.94132 91.746V91.8359M7.94132 91.746H7.59807M13.1873 91.746L13.1249 91.5053M13.1873 91.746H13.5314M13.1873 91.746V91.8359M77.3907 91.746L77.3599 91.5053M77.3907 91.746H72.1447M77.3907 91.746H77.734M77.3907 91.746V91.8359M72.1447 91.746L72.1755 91.5053M72.1447 91.746H71.7698M72.1447 91.746V91.8359M71.7698 91.746H71.8007M71.7698 91.746L71.8323 91.5053M71.7698 91.746V91.7758L71.8007 91.8055V91.8352H71.894M78.078 91.5053H7.25481M78.078 91.5053V87.2347M78.078 91.5053L78.6087 91.4756L79.1394 91.3857L79.6392 91.2356L80.1391 91.0254L80.5764 90.7549L81.0138 90.4243L81.3887 90.0632L81.7011 89.6724L81.9818 89.2214L82.2001 88.74L82.356 88.2585L82.4493 87.7474L82.4801 87.2362M7.25481 91.5053L6.72412 91.4756L6.19342 91.3857L5.69358 91.2356L5.19374 91.0254L4.75638 90.7549L4.31902 90.4243L3.94414 90.0632L3.60088 89.6724L3.35096 89.2214L3.13267 88.74L2.94523 88.2585L2.85189 87.7474L2.82104 87.2362M7.25481 91.5053V87.234M78.078 32.7033H82.4809V87.2347H78.078M78.078 32.7033H7.25481M78.078 32.7033V87.2347M7.25481 87.234L78.078 87.2347M7.25481 87.234L2.82027 87.2347V32.7033H7.25481M7.25481 87.234V32.7033M32.0486 32.1312V32.0413M32.0486 32.1312V32.0711L32.0795 32.0413V32.0116H32.1103L32.1412 31.9819H32.2037M32.0486 32.1312H32.5801M32.0486 32.1312V32.583M53.2834 32.0413V32.1312M53.2834 32.1312V32.0711L53.2525 32.0413L53.2217 32.0116L53.1908 31.9819H53.0975M53.2834 32.1312V32.5822M53.2834 32.1312H52.7527M53.096 31.9812H52.7527M52.7527 31.9812V32.1312M52.7527 31.9812H32.5801M52.7527 32.1312V32.5822M52.7527 32.1312H32.5801M32.5801 31.9812V32.1312M32.5801 31.9812H32.2052M32.5801 32.1312L32.5793 32.583M53.2834 32.5822L53.1901 32.6432H52.7527M53.2834 32.5822H52.7527M32.0486 32.583L32.142 32.6432H32.5801M32.0486 32.583H32.5793M32.5801 32.6432L32.5793 32.583M32.5801 32.6432H52.7527M32.5793 32.583L52.7527 32.5822M52.7527 32.5822V32.6432M1.38399 13.9046L1.41485 13.2426L1.50818 12.5806L1.69562 11.9491L1.91392 11.3176L2.22632 10.7158L2.56957 10.1139L2.97531 9.60277L3.44352 9.09161L3.97422 8.64062L4.53654 8.24982L5.12972 7.88873L5.75452 7.61829L6.41017 7.37757L7.06583 7.22749L7.75311 7.13759L8.47125 7.10787M1.38399 13.9046V34.2673M2.25794 13.9046L2.2888 13.3028L2.38213 12.6713L2.56957 12.0695L2.78787 11.4981L3.10027 10.9268L3.44352 10.4156L3.84926 9.93414L4.31747 9.48316L4.81732 9.09235L5.34801 8.76173L5.94119 8.46082L6.53436 8.25056L7.15916 8.07002L7.81482 7.98012L8.47048 7.9504M2.25794 13.9046V34.2673M76.86 7.10638L77.5473 7.1361L78.2346 7.226L78.9219 7.37608L79.5775 7.6168L80.2023 7.88725L80.7955 8.24833L81.3578 8.63914L81.8885 9.09012L82.3259 9.60129L82.7632 10.1125L83.1065 10.7143L83.4189 11.3161L83.6372 11.9476L83.8246 12.5791L83.918 13.2411L83.9488 13.9031M77.5465 7.15244L78.2338 7.31664L78.8895 7.46672L79.5451 7.70745L80.1699 7.97789L80.7631 8.30851L81.2938 8.69932L81.8245 9.1503L82.2618 9.63175L82.6676 10.1734L83.0425 10.7447L83.3232 11.3465L83.5415 11.9483L83.729 12.6103L83.8223 13.2419L83.8532 13.9039M76.86 7.94891L77.5157 7.97863L78.1405 8.06853L78.7961 8.24908L79.3893 8.45934L79.9516 8.76024L80.5139 9.09087L81.0138 9.48167L81.482 9.93266L81.8877 10.4141L82.231 10.9253L82.5118 11.4966L82.7617 12.068L82.9175 12.6698L83.0425 13.3013L83.0733 13.9031M77.5157 7.96303L78.1713 8.00909L78.7961 8.15918L79.4209 8.3999L80.0141 8.67034L80.5448 9.03143L81.0755 9.42223L81.5437 9.87322L81.9494 10.3547L82.2927 10.8963L82.6051 11.4676L82.855 12.039L83.0108 12.6705L83.1042 13.2723L83.135 13.9039M32.0178 32.6729H53.315M32.0178 32.6729H7.25481M32.0178 32.6729V32.583M53.315 32.6729H78.0772M53.315 32.6729L53.3143 32.583M7.28567 26.6875H78.0464M7.28567 26.6875V30.8682M7.28567 26.6875L6.75497 26.7172L6.22428 26.8071L5.72443 26.9572L5.25622 27.1674L4.788 27.4379L4.38227 27.7388L4.00739 28.0999L3.66413 28.4907L3.38336 28.9119L3.16506 29.3934L3.00925 29.8748L2.91591 30.3563L2.85343 30.8674M78.0464 26.6875V30.8682M78.0464 26.6875L78.5771 26.7179L79.0769 26.8078L79.5767 26.9579L80.0766 27.1682L80.5139 27.4386L80.9513 27.7395L81.3262 28.1006L81.6694 28.4914L81.9194 28.9127L82.1693 29.3941L82.3251 29.8756L82.4184 30.357L82.4493 30.8682M7.28567 30.8682H78.0464M7.28567 30.8682L7.25481 32.6432M7.28567 30.8682H5.72521L5.22536 30.8385H3.38259L3.16429 30.8682H2.85189L2.82027 32.6432H7.25481M78.0464 30.8682H79.6076L80.1074 30.8385H81.9494L82.1677 30.8682H82.4493M78.0464 30.8682L78.078 32.6432M82.4493 30.8682L82.4809 32.6432H78.078M31.9869 32.6424L32.0178 32.1305V32.0703L32.0486 32.0101L32.1111 31.9804L32.1736 31.9507H53.1268L53.1893 31.9812L53.2518 32.0109L53.3143 32.0711V32.1312V32.6432H78.078M7.25481 32.6432H31.9862L32.017 32.132M81.1688 32.6729V32.7026M80.7322 32.6729V32.7026M4.60056 32.6729V32.7026M4.13158 32.6729V32.7026M13.1873 91.8359H7.94132M13.1873 91.8359H13.4689M13.1873 91.8359H13.2498M7.94132 91.8359H7.66055M7.59807 91.746V91.5053M7.59807 91.746L7.59884 91.8062M7.66055 91.8359H7.62969L7.59884 91.8062M7.66055 91.8359H7.91047M7.66055 91.8359H7.6914M7.66055 91.8359V91.8062M7.59884 91.8062L7.62892 91.8055M77.3907 91.8359H72.1447M77.3907 91.8359H77.6406M72.1447 91.8359H71.8948M77.734 91.746L77.7031 91.5053M77.734 91.746V91.8062H77.7031V91.8359M77.6406 91.8359H77.7031M77.6406 91.8359H77.4223M77.6406 91.8359H77.6715M77.7031 91.8359H77.6715M77.7031 91.8359L77.7023 91.7758M71.9573 91.8359H71.8639M84.8852 43.7714L84.9477 43.7417H84.9786L85.0411 43.712L85.0719 43.6823L85.1028 43.6526L85.1336 43.5924V43.5627L85.1645 43.5025M84.8852 43.7714H82.6684V34.2666M84.8852 43.7714V33.5154M85.166 43.501V33.7859M84.8852 33.5154L84.9477 33.5451H84.9786L85.0411 33.5748L85.0719 33.6046L85.1028 33.6343L85.1336 33.6945V33.7242L85.1645 33.7844M84.8852 33.5154H84.0105V34.2673H82.6676M82.6668 34.268H82.636L82.6051 34.2978V34.3275L82.5742 34.3572V43.6815V43.7112H82.6051V43.741L82.636 43.7707H82.6668M0.446791 33.5154L0.38431 33.5451H0.353456L0.290976 33.5748L0.260122 33.6046L0.229267 33.6343L0.198413 33.6945L0.167558 33.7242V33.7844M0.446791 33.5154H1.32151V34.2673H2.66445M0.446791 33.5154V43.7714M0.166016 33.7859V43.501M0.446791 43.7714L0.38431 43.7417H0.353456L0.290976 43.712L0.260122 43.6823L0.229267 43.6526L0.198413 43.5924L0.167558 43.5627V43.5025M0.446791 43.7714H2.66368M2.66445 34.2673H2.6953L2.72616 34.297V34.3572L2.72693 43.6815L2.72616 43.7417L2.6953 43.7714L2.66445 43.7722V34.2673ZM82.5742 36.072V36.0423H82.5434L82.5125 36.0125V35.9524L82.4817 35.9226M82.4809 41.3657L82.5118 41.336V41.2758L82.5426 41.2461L82.5735 41.2163M2.72693 41.2149H2.75778L2.78864 41.2446V41.2743L2.81949 41.304V41.3642M2.82027 35.9212V35.9813L2.78941 36.0111V36.0408H2.75856L2.7277 36.0705M8.3162 32.6729H7.03575H6.19265M3.19515 32.6127V32.6424M13.5622 91.746L13.4997 91.5053M7.62892 91.7758L7.59807 91.8055H7.62892M7.62892 91.8055V91.8352M13.3748 91.8359H13.4997L13.5306 91.8062V91.7765L13.5615 91.7468H13.5306M77.6715 91.8062V91.8359" stroke="#002B4D" stroke-width="0.5" stroke-linecap="round" stroke-linejoin="round"/>
<path d="M20.0587 44.8033H21.6266V45.5185H20.0587V47.1857H19.2832V43.0781H21.9002V43.7933H20.0587V44.8033Z" fill="#002B4D"/>
<path d="M25.5703 47.1857V43.0781H26.3458V47.1857H25.5703Z" fill="#002B4D"/>
<path d="M30.3281 47.1857V43.0781H32.9451V43.7933H31.1036V44.7564H32.6715V45.4716H31.1036V46.4697H32.9451V47.1849H30.3281V47.1857Z" fill="#002B4D"/>
<path d="M36.7058 47.1857V43.0781H37.4813V46.4705H39.2829V47.1857H36.7051H36.7058Z" fill="#002B4D"/>
<path d="M45.4972 46.5857C45.2128 46.995 44.8385 47.1857 44.2974 47.1857H42.8633V43.0781H44.2974C44.8385 43.0781 45.2128 43.2688 45.4972 43.6781C45.7431 44.0293 45.7477 44.4505 45.7477 45.1315C45.7477 45.8125 45.7423 46.2337 45.4972 46.5849V46.5857ZM44.2306 43.7933H43.6388V46.4697H44.2306C44.4927 46.4697 44.6825 46.3831 44.8108 46.2154C44.9561 46.0366 44.9722 45.7768 44.9722 45.1307C44.9722 44.4847 44.9561 44.2248 44.8108 44.046C44.8108 44.046 44.6525 43.7925 44.2306 43.7925V43.7933Z" fill="#002B4D"/>
<path d="M51.0589 47.1857H49.3965V43.0781H50.992C51.7675 43.0781 52.2194 43.5279 52.2194 44.232C52.2194 44.6881 51.9297 44.9821 51.7283 45.0799C51.9681 45.1951 52.2748 45.4549 52.2748 46.0025C52.2748 46.7701 51.7668 47.1849 51.0589 47.1849V47.1857ZM50.9313 43.7933H50.1727V44.7397H50.9313C51.261 44.7397 51.4447 44.549 51.4447 44.2669C51.4447 43.9848 51.2603 43.7941 50.9313 43.7941V43.7933ZM50.9813 45.4605H50.1727V46.4705H50.9813C51.3325 46.4705 51.5001 46.2401 51.5001 45.9627C51.5001 45.6854 51.3325 45.4613 50.9813 45.4613V45.4605Z" fill="#002B4D"/>
<path d="M58.6536 47.2287L58.4192 46.5016H57.0073L56.7675 47.2287H55.959L57.4047 43.1211H58.0126L59.4629 47.2287H58.6536ZM57.7275 44.3329L57.2248 45.8277H58.2124L57.7275 44.3329Z" fill="#002B4D"/>
<path d="M65.232 47.1857L64.4565 45.5471H63.8985V47.1857H63.123V43.0781H64.6802C65.4887 43.0781 65.9691 43.6495 65.9691 44.3353C65.9691 44.9122 65.6294 45.2698 65.2435 45.4136L66.1312 47.1841H65.2335L65.232 47.1857ZM64.6302 43.7933H63.8993V44.878H64.6302C64.9699 44.878 65.1936 44.6531 65.1936 44.3361C65.1936 44.019 64.9707 43.7933 64.6302 43.7933Z" fill="#002B4D"/>
</g>
<defs>
<clipPath id="clip0_190_45637">
<rect width="85" height="91.0714" fill="white" transform="translate(0.166016 0.429688)"/>
</clipPath>
</defs>
</svg>
