<svg width="13" height="16" viewBox="0 0 13 16" fill="none" xmlns="http://www.w3.org/2000/svg">
<path fill-rule="evenodd" clip-rule="evenodd" d="M5.43702 10.4372C5.4231 10.4834 5.40984 10.5219 5.39922 10.5605C4.78248 12.8631 4.71417 13.3744 4.08019 14.4439C3.77778 14.9521 3.43758 15.4337 3.0609 15.8945C3.01846 15.9463 2.97867 16.0139 2.89378 15.9975C2.80094 15.9785 2.79364 15.8989 2.78369 15.8281C2.68223 15.1284 2.62652 14.4268 2.6504 13.7202C2.68223 12.7999 2.8016 12.4838 4.04636 7.49559C4.06427 7.41974 4.04437 7.35653 4.01718 7.28764C3.71942 6.52157 3.6604 5.74413 3.92036 4.95658C4.48405 3.25506 6.50737 3.12486 6.8615 4.52868C7.07968 5.39713 6.50273 6.53295 6.05974 8.21298C5.69301 9.5991 7.40464 10.5839 8.86758 9.57255C10.2165 8.64026 10.7404 6.40401 10.6409 4.81943C10.4446 1.65973 6.80978 0.977103 4.50329 1.99473C1.85924 3.15962 1.25841 6.28329 2.45211 7.71049C2.60331 7.89189 2.88848 8.00314 2.83874 8.18707C2.76181 8.47276 2.69417 8.76098 2.61127 9.04541C2.5496 9.25715 2.19546 9.33363 1.97131 9.24704C1.53097 9.07764 1.1649 8.81028 0.86714 8.45885C-0.146842 7.26236 -0.436642 4.89591 0.903617 2.89226C2.38845 0.672449 5.15053 -0.225083 7.67255 0.0473364C10.6847 0.374114 12.5886 2.33541 12.9447 4.56028C13.1072 5.57411 12.9905 8.07393 11.497 9.83991C9.77944 11.8701 6.99546 12.0047 5.71091 10.7583C5.6121 10.6629 5.53252 10.551 5.43569 10.4366L5.43702 10.4372Z" fill="#002B4D"/>
</svg>
