<svg width="134" height="14" viewBox="0 0 134 14" fill="none" xmlns="http://www.w3.org/2000/svg">
<path d="M7 0L8.5716 4.83688H13.6574L9.5429 7.82624L11.1145 12.6631L7 9.67376L2.8855 12.6631L4.4571 7.82624L0.342604 4.83688H5.4284L7 0Z" fill="#002B4D"/>
<path d="M37 0L38.5716 4.83688H43.6574L39.5429 7.82624L41.1145 12.6631L37 9.67376L32.8855 12.6631L34.4571 7.82624L30.3426 4.83688H35.4284L37 0Z" fill="#002B4D"/>
<path d="M67 0L68.5716 4.83688H73.6574L69.5429 7.82624L71.1145 12.6631L67 9.67376L62.8855 12.6631L64.4571 7.82624L60.3426 4.83688H65.4284L67 0Z" fill="#002B4D"/>
<path d="M97 0L98.5716 4.83688H103.657L99.5429 7.82624L101.114 12.6631L97 9.67376L92.8855 12.6631L94.4571 7.82624L90.3426 4.83688H95.4284L97 0Z" fill="#002B4D"/>
<path d="M127 0L128.572 4.83688H133.657L129.543 7.82624L131.114 12.6631L127 9.67376L122.886 12.6631L124.457 7.82624L120.343 4.83688H125.428L127 0Z" fill="#002B4D"/>
</svg>
