<svg width="18" height="14" viewBox="0 0 18 14" fill="none" xmlns="http://www.w3.org/2000/svg">
<path d="M18 1.61984C17.3422 1.90909 16.6246 2.08264 15.907 2.19835C16.6844 1.73554 17.2226 1.04132 17.5216 0.231405C16.804 0.636364 16.0266 0.925619 15.1894 1.09917C14.5316 0.404958 13.5747 0 12.4983 0C10.4651 0 8.7907 1.61984 8.7907 3.58678C8.7907 3.87603 8.8505 4.16529 8.9103 4.39669C5.86047 4.16529 3.10963 2.77686 1.31561 0.578513C1.01661 1.09917 0.837209 1.73554 0.837209 2.3719C0.837209 3.58678 1.49502 4.68595 2.45183 5.32231C1.85382 5.32231 1.25581 5.14876 0.777409 4.8595V4.91735C0.777409 6.65289 2.03322 8.09917 3.70764 8.38843C3.40864 8.44628 3.04983 8.50413 2.75083 8.50413C2.51163 8.50413 2.27243 8.50413 2.03322 8.44628C2.51163 9.83471 3.88704 10.876 5.44186 10.9339C4.18605 11.9174 2.57143 12.438 0.89701 12.438C0.598007 12.438 0.299003 12.438 0 12.3802C1.61462 13.3636 3.58804 14 5.62126 14C12.3787 14 16.0864 8.56199 16.0864 3.87603C16.0864 3.70248 16.0864 3.58678 16.0864 3.41322C16.8638 2.95041 17.5216 2.31405 18 1.61984Z" fill="#002B4D"/>
</svg>
